<?xml version="1.0" standalone="no"?>
<!DOCTYPE svg PUBLIC "-//W3C//DTD SVG 20010904//EN"
 "http://www.w3.org/TR/2001/REC-SVG-20010904/DTD/svg10.dtd">
<svg version="1.0" xmlns="http://www.w3.org/2000/svg"
 width="1600.000000pt" height="1600.000000pt" viewBox="0 0 1600.000000 1600.000000"
 preserveAspectRatio="xMidYMid meet">
<metadata>
Created by potrace 1.15, written by Peter Selinger 2001-2017
</metadata>
<g transform="translate(0.000000,1600.000000) scale(0.100000,-0.100000)"
fill="#000000" stroke="none">
<path d="M6713 15359 c-516 -35 -908 -167 -1358 -457 -184 -119 -441 -318
-553 -430 -61 -61 -95 -138 -95 -221 -1 -49 66 -391 252 -1301 139 -679 257
-1256 262 -1281 l10 -46 1770 588 c974 323 1773 590 1776 592 2 3 -235 540
-529 1193 -484 1078 -537 1192 -580 1239 -79 87 -144 106 -433 125 -179 11
-342 11 -522 -1z"/>
<path d="M12632 13460 c-94 -20 -180 -88 -227 -180 -23 -45 -32 -174 -15 -226
7 -22 38 -79 70 -129 443 -693 815 -1777 1009 -2940 103 -616 152 -1161 174
-1913 12 -395 14 -419 35 -462 35 -74 78 -117 150 -152 58 -29 76 -33 142 -32
126 0 231 67 287 182 24 49 28 70 31 176 4 130 -12 647 -29 916 -87 1398 -383
2725 -841 3770 -170 388 -423 842 -511 916 -73 62 -186 92 -275 74z"/>
<path d="M7172 11605 c-1322 -441 -2407 -807 -2412 -811 -4 -5 -209 -297 -455
-649 -385 -550 -499 -724 -482 -741 1 -2 57 13 122 32 123 37 7321 2325 7364
2342 l24 9 -29 20 c-16 11 -44 28 -63 38 -35 18 -1644 565 -1658 564 -4 0
-1090 -362 -2411 -804z"/>
<path d="M11525 11185 c-22 -7 -1669 -531 -3660 -1165 -1991 -633 -3678 -1169
-3750 -1190 -119 -35 -130 -40 -127 -60 3 -32 175 -450 297 -725 505 -1136
1197 -2454 2088 -3975 548 -937 1317 -2181 1899 -3075 123 -189 179 -229 323
-230 80 0 90 3 1995 644 1053 354 1934 654 1958 668 57 33 118 112 139 181 15
54 15 81 -6 487 -172 3328 -529 6206 -997 8035 -45 173 -111 411 -116 415 -2
2 -21 -3 -43 -10z"/>
<path d="M1793 10589 c-103 -40 -182 -135 -202 -245 -12 -62 3 -534 24 -780
118 -1375 560 -2728 1287 -3939 248 -412 614 -918 720 -995 123 -89 303 -75
410 32 66 65 92 127 93 218 0 107 -20 149 -146 307 -739 927 -1331 2215 -1583
3448 -104 510 -150 911 -165 1431 -8 288 -8 291 -36 353 -69 154 -248 229
-402 170z"/>
</g>
</svg>
